<svg width="183" height="532" viewBox="0 0 183 532" fill="none" xmlns="http://www.w3.org/2000/svg">
<path d="M167 492.96C167.226 516.665 17.8457 518.837 15.0003 492.961C14.7739 469.257 164.154 467.085 167 492.96Z" fill="#E6E6E6"/>
<path d="M50.1254 410.664L39.0234 416.719L46.0884 439.932L57.1895 440.941L63.2454 427.821L50.1254 410.664Z" fill="#D5BABE"/>
<path d="M84.4395 457.086V468.187L101.596 467.178L101.357 458.035L84.4395 457.086Z" fill="#D5BABE"/>
<path d="M46.0898 277.445L52.1448 353.139L71.3208 464.155L101.598 460.118L91.5058 372.314L95.5428 291.575L46.0898 277.445Z" fill="#3C2B42"/>
<path d="M126.829 220.922L54.1638 221.931L46.0898 277.439L95.5428 300.652L107.654 345.059L46.0899 410.66L70.3118 440.937C70.3118 440.937 104.626 394.512 129.857 368.271C155.088 342.031 142.977 262.301 142.977 262.301L126.829 220.922Z" fill="#3C2B42"/>
<path d="M83.4319 77.6099C95.6945 77.6099 105.635 67.6691 105.635 55.4065C105.635 43.1439 95.6945 33.2031 83.4319 33.2031C71.1693 33.2031 61.2285 43.1439 61.2285 55.4065C61.2285 67.6691 71.1693 77.6099 83.4319 77.6099Z" fill="#D5BABE"/>
<path d="M75.3574 70.5456V92.7489L90.4961 116.971C90.4961 116.971 113.709 99.8137 108.662 95.7767C103.616 91.7397 102.607 60.4531 102.607 60.4531L75.3574 70.5456Z" fill="#D5BABE"/>
<path d="M75.3578 88.7168L60.2188 106.883L66.2748 233.038L113.709 232.029L121.783 122.022L111.691 93.7628L104.768 84.3438L92.5148 102.846L75.3578 88.7168Z" fill="#181818"/>
<path d="M51.1346 154.314L40.033 196.703L51.1346 239.091L32.9683 263.313L16.8203 186.61C16.8203 186.61 28.9314 124.037 29.9406 116.972C30.9497 109.908 32.9683 108.898 32.9683 108.898L41.0422 109.908L51.1346 154.314Z" fill="#3C2B42"/>
<path d="M131.875 170.462L138.94 183.583L140.959 205.786L136.922 231.017L151.051 254.23L165.18 190.647L150.042 108.898H143.986L131.875 170.462Z" fill="#3C2B42"/>
<path d="M46.0888 409.656C46.0888 409.656 31.9594 413.693 26.9131 414.702C21.8668 415.712 29.9409 434.887 29.9409 434.887C29.9409 434.887 34.987 461.128 35.9963 466.174C37.0056 471.22 44.0703 488.377 53.1535 490.396C62.2366 492.414 56.1812 455.072 56.1812 455.072C56.1812 455.072 60.2182 442.961 60.2182 438.924C60.2182 434.887 54.1627 436.906 54.1627 436.906C38.0148 434.887 46.0888 409.656 46.0888 409.656Z" fill="#211B24"/>
<path d="M79.3932 487.364C80.4025 493.419 78.384 493.419 94.5319 495.438C110.68 497.456 106.643 484.336 106.643 484.336C105.968 478.151 104.614 472.059 102.606 466.17C99.5781 458.096 83.4302 468.188 83.4302 468.188C83.4302 468.188 78.384 481.308 79.3932 487.364Z" fill="#211B24"/>
<path d="M102.634 61.1618L103.16 70.1374C103.16 70.1374 109.672 55.4107 110.681 40.272C111.691 25.1334 94.5334 22.1057 84.441 21.0964C74.3486 20.0872 57.1914 27.1519 57.1914 35.2258C57.1914 43.2998 75.3578 41.2813 82.4225 39.2628C89.4872 37.2443 92.515 54.4015 92.515 54.4015L96.5519 55.4107L102.634 61.1618Z" fill="#2F2E41"/>
<path d="M69.4004 95.8579L75.3574 88.7109L92.5144 102.84L75.3574 114.951L69.4004 95.8579Z" fill="#F5F5F5"/>
<path d="M111.69 93.7627L104.625 84.6797L92.5137 102.846L107.653 113.948L111.69 93.7627Z" fill="#F5F5F5"/>
<path d="M48.1079 168.447L52.1449 206.799L44.071 230.011L39.0247 252.215C39.0247 252.215 39.0248 273.409 59.2097 274.418C79.3945 275.427 96.5516 210.836 96.5516 210.836C96.5516 210.836 99.5793 224.965 101.598 233.039C103.616 241.113 137.931 273.409 137.931 273.409C137.931 273.409 146.005 272.399 153.069 256.252C160.134 240.104 138.94 224.965 138.94 224.965L132.884 203.771L134.903 177.531L149.032 108.902L107.149 87.2031L111.69 145.235L96.5517 190.651L73.8437 90.2309L66.2744 95.7817L33.9785 108.902L48.1079 168.447Z" fill="#3C2B42"/>
</svg>
