<svg width="183" height="487" viewBox="0 0 183 487" fill="none" xmlns="http://www.w3.org/2000/svg">
<path d="M50.3051 395.664L39.2031 401.719L46.2681 424.932L57.3691 425.941L63.4251 412.821L50.3051 395.664Z" fill="#D5BABE"/>
<path d="M84.6191 442.086V453.187L101.776 452.178L101.537 443.035L84.6191 442.086Z" fill="#D5BABE"/>
<path d="M46.2695 262.445L52.3245 338.139L71.5005 449.155L101.778 445.118L91.6855 357.314L95.7225 276.575L46.2695 262.445Z" fill="#3C2B42"/>
<path d="M127.009 205.922L54.3435 206.931L46.2695 262.439L95.7225 285.652L107.833 330.059L46.2696 395.66L70.4915 425.937C70.4915 425.937 104.806 379.512 130.037 353.271C155.268 327.031 143.157 247.301 143.157 247.301L127.009 205.922Z" fill="#3C2B42"/>
<path d="M83.6116 62.6099C95.8742 62.6099 105.815 52.6691 105.815 40.4065C105.815 28.1439 95.8742 18.2031 83.6116 18.2031C71.349 18.2031 61.4082 28.1439 61.4082 40.4065C61.4082 52.6691 71.349 62.6099 83.6116 62.6099Z" fill="#D5BABE"/>
<path d="M75.5371 55.5456V77.7489L90.6758 101.971C90.6758 101.971 113.888 84.8137 108.842 80.7767C103.796 76.7397 102.787 45.4531 102.787 45.4531L75.5371 55.5456Z" fill="#D5BABE"/>
<path d="M75.5375 73.7168L60.3984 91.8828L66.4545 218.038L113.888 217.029L121.962 107.022L111.87 78.7628L104.947 69.3438L92.6945 87.8457L75.5375 73.7168Z" fill="#181818"/>
<path d="M51.3143 139.314L40.2126 181.703L51.3143 224.091L33.1479 248.313L17 171.61C17 171.61 29.111 109.037 30.1202 101.972C31.1294 94.9077 33.1479 93.8984 33.1479 93.8984L41.2219 94.9077L51.3143 139.314Z" fill="#3C2B42"/>
<path d="M131.875 155.462L138.94 168.583L140.959 190.786L136.922 216.017L151.051 239.23L165.18 175.647L150.042 93.8984H143.986L131.875 155.462Z" fill="#3C2B42"/>
<path d="M46.2685 394.656C46.2685 394.656 32.1391 398.693 27.0928 399.702C22.0465 400.712 30.1206 419.887 30.1206 419.887C30.1206 419.887 35.1667 446.128 36.176 451.174C37.1853 456.22 44.25 473.377 53.3332 475.396C62.4163 477.414 56.3609 440.072 56.3609 440.072C56.3609 440.072 60.3979 427.961 60.3979 423.924C60.3979 419.887 54.3424 421.906 54.3424 421.906C38.1945 419.887 46.2685 394.656 46.2685 394.656Z" fill="#211B24"/>
<path d="M79.5729 472.364C80.5822 478.419 78.5636 478.419 94.7116 480.438C110.86 482.456 106.823 469.336 106.823 469.336C106.147 463.151 104.794 457.059 102.786 451.17C99.7578 443.096 83.6099 453.188 83.6099 453.188C83.6099 453.188 78.5637 466.308 79.5729 472.364Z" fill="#211B24"/>
<path d="M102.813 46.1618L103.339 55.1374C103.339 55.1374 109.852 40.4107 110.861 25.272C111.87 10.1334 94.7131 7.10566 84.6207 6.09642C74.5283 5.08718 57.3711 12.1519 57.3711 20.2258C57.3711 28.2998 75.5375 26.2813 82.6022 24.2628C89.6669 22.2443 92.6946 39.4015 92.6946 39.4015L96.7316 40.4107L102.813 46.1618Z" fill="#2F2E41"/>
<path d="M69.5801 80.8579L75.5371 73.7109L92.6941 87.8399L75.5371 99.9509L69.5801 80.8579Z" fill="#F5F5F5"/>
<path d="M111.869 78.7627L104.804 69.6797L92.6934 87.8457L107.832 98.9477L111.869 78.7627Z" fill="#F5F5F5"/>
<path d="M48.2876 153.447L52.3246 191.799L44.2507 215.011L39.2044 237.215C39.2044 237.215 39.2045 258.409 59.3893 259.418C79.5742 260.427 96.7313 195.836 96.7313 195.836C96.7313 195.836 99.759 209.965 101.778 218.039C103.796 226.113 138.11 258.409 138.11 258.409C138.11 258.409 146.184 257.399 153.249 241.252C160.314 225.104 139.12 209.965 139.12 209.965L133.064 188.771L135.083 162.531L149.212 93.9019L107.328 72.2031L111.87 130.235L96.7314 175.651L74.0234 75.2309L66.454 80.7817L34.1582 93.9019L48.2876 153.447Z" fill="#3C2B42"/>
</svg>
